<?xml version="1.0" encoding="utf-8"?>
<svg xmlns="http://www.w3.org/2000/svg" viewBox="0 0 900 560"
	font-family="Inter, -apple-system, system-ui, sans-serif">
	<defs>
		<filter id="shadow" x="-4%" y="-4%" width="108%" height="112%">
			<feDropShadow dx="0" dy="2" stdDeviation="4" flood-color="#00000018" />
		</filter>
		<linearGradient id="bgGrad" x1="0" y1="0" x2="0" y2="1">
			<stop offset="0" stop-color="#f8fafc" />
			<stop offset="1" stop-color="#eef2f7" />
		</linearGradient>
		<linearGradient id="wifiGrad" x1="0" y1="0" x2="1" y2="0">
			<stop offset="0" stop-color="#3b82f6" />
			<stop offset="1" stop-color="#60a5fa" />
		</linearGradient>
	</defs>
	<rect width="900" height="560" rx="16" fill="url(#bgGrad)" />
	<text x="450" y="42" text-anchor="middle" font-size="20" font-weight="700" fill="#0f172a"
		style="white-space: pre; font-size: 20px;">Remote Access Gateway - Network Diagram</text>
	<rect x="70" y="135" width="760" height="290" rx="16" fill="#8b5cf612" stroke="#8b5cf6"
		stroke-width="1.5" stroke-dasharray="8 4" />
	<text x="450" y="62.941" text-anchor="middle" font-size="13" font-weight="600" fill="#7c3aed"
		style="white-space: pre; font-size: 13px;">WireGuard Tunnel · 10.0.0.0/24</text>
	<g>
		<g transform="matrix(1, 0, 0, 1, -51.067753, 70.587677)">
			<g filter="url(#shadow)" transform="matrix(1, 0, 0, 1, 0, 24.370255)">
				<rect x="159.111" y="121.952" width="250" height="130" rx="12" fill="#fff"
					stroke="#cbd5e1" stroke-width="1.2" />
				<g transform="matrix(1, 0, 0, 1, 282.331573, 135.164139)">
					<rect x="-14" y="0" width="28" height="18" rx="3" fill="none" stroke="#0f172a"
						stroke-width="1.8" />
					<line x1="-17.555" y1="23.263" x2="18.445" y2="23.263" stroke="#0f172a"
						stroke-width="2" stroke-linecap="round" />
				</g>
				<text x="284.081" y="178.015" text-anchor="middle" font-size="14" font-weight="600"
					fill="#0f172a" style="white-space: pre; font-size: 14px;">MacBook</text>
				<text x="284.555" y="195.11" text-anchor="middle" font-size="11" fill="#64748b"
					style="white-space: pre; font-size: 11px;">LAN: 192.168.2.1</text>
				<text x="283.607" y="213.27" text-anchor="middle" font-size="11" fill="#7c3aed"
					font-weight="500" style="white-space: pre; font-size: 11px;">WireGuard: 10.0.0.2</text>
				<text x="283.133" y="231.43" text-anchor="middle" font-size="11" fill="#64748b"
					style="white-space: pre; font-size: 11px;">WireGuard Client</text>
			</g>
		</g>
		<g filter="url(#shadow)" transform="matrix(1, 0, 0, 1, -48.932232, 95.042091)">
			<rect x="589.702" y="120" width="250" height="130" rx="12" fill="#fff" stroke="#cbd5e1"
				stroke-width="1.2" />
			<g transform="matrix(1, 0, 0, 1, 710.213989, 136.177872)">
				<rect x="-12" y="0" width="24" height="18" rx="2" fill="#16a34a" />
				<rect x="-8" y="3" width="4" height="4" rx="1" fill="#fff" />
				<rect x="0" y="3" width="4" height="4" rx="1" fill="#fff" />
				<rect x="-8" y="10" width="4" height="4" rx="1" fill="#fff" />
				<rect x="0" y="10" width="4" height="4" rx="1" fill="#fff" />
				<line x1="15" y1="6" x2="20" y2="6" stroke="#16a34a" stroke-width="1.5" />
				<line x1="15" y1="12" x2="20" y2="12" stroke="#16a34a" stroke-width="1.5" />
			</g>
			<text x="713.661" y="172.394" text-anchor="middle" font-size="14" font-weight="600"
				fill="#0f172a" style="white-space: pre; font-size: 14px;">Raspberry Pi</text>
			<text x="714.405" y="195.289" text-anchor="middle" font-size="11" fill="#64748b"
				style="white-space: pre; font-size: 11px;">DHCP: 192.6.2.6</text>
			<text style="white-space: pre; font-size: 11px;" x="715" y="213.317"
				text-anchor="middle" font-weight="500" font-size="11" fill="#7c3aed">WireGuard:
				10.0.0.1</text>
			<text x="714.107" y="231.346" text-anchor="middle" font-size="11" fill="#64748b"
				style="white-space: pre; font-size: 11px;">WireGuard Server</text>
		</g>
	</g>
	<g transform="matrix(1, 0, 0, 1, -46.658451, 33.507683)">
		<rect x="455.658" y="72" width="82" height="22" rx="6" fill="#7c3aed" />
		<text x="496.658" y="87" text-anchor="middle" font-size="10" font-weight="600" fill="#fff"
			style="white-space: pre; font-size: 10px;">WireGuard</text>
	</g>
	<g transform="matrix(1, 0, 0, 1, -44.080078, 8.215516)">
		<g transform="matrix(1, 0, 0, 1, -7.919921, 90.7845)">
			<rect x="458" y="159" width="88" height="22" rx="6" fill="#f59e0b" />
		</g>
		<text x="494.08" y="264.785" text-anchor="middle" font-size="10" font-weight="600"
			fill="#fff" style="white-space: pre; font-size: 10px;">USB-Ethernet</text>
	</g>
	<g filter="url(#shadow)" transform="matrix(1, 0, 0, 1, -59.210106, 48.67551)">
		<rect x="60" y="400" width="170" height="110" rx="12" fill="#fff" stroke="#cbd5e1"
			stroke-width="1.2" />
		<g transform="matrix(1, 0, 0, 1, 145.555969, 416.472229)">
			<rect x="-16" y="0" width="32" height="20" rx="4" fill="#3b82f6" />
			<circle cx="-8" cy="10" r="2" fill="#fff" />
			<circle cx="0" cy="10" r="2" fill="#fff" />
			<circle cx="8" cy="10" r="2" fill="#fff" />
			<line x1="0" y1="20" x2="0" y2="28" stroke="#3b82f6" stroke-width="2" />
			<line x1="-10" y1="28" x2="10" y2="28" stroke="#3b82f6" stroke-width="2" />
		</g>
		<text x="145" y="464" text-anchor="middle" font-size="14" font-weight="600" fill="#0f172a"
			style="white-space: pre;">Router</text>
		<text x="145" y="482" text-anchor="middle" font-size="11" fill="#64748b"
			style="white-space: pre;">Gateway / Internet</text>
		<text x="145" y="498" text-anchor="middle" font-size="11" fill="#64748b"
			style="white-space: pre;">192.168.2.0/24 LAN</text>
	</g>
	<path d="M 166.938 452.547 C 192.484 422.17 209.516 384.2 226.547 346.23" fill="none"
		stroke="url(#wifiGrad)" stroke-width="2.5" stroke-dasharray="6 3" style="" />
	<g transform="matrix(1, 0, 0, 1, 8.92695, 112.825058)">
		<g transform="matrix(1, 0, 0, 1, -0.475971, -2.10692)">
			<rect x="120.813" y="276.054" width="56" height="22" rx="6" fill="#3b82f6" />
			<g>
				<g>
					<g transform="matrix(1, 0, 0, 1, -77.187164, -43.945755)">
						<text x="226" y="335" text-anchor="middle" font-size="10" font-weight="600"
							fill="#fff" style="white-space: pre;">Wi-Fi</text>
					</g>
				</g>
			</g>
		</g>
	</g>
	<g transform="translate(310, 500)">
		<text x="0" y="0" font-size="11" font-weight="600" fill="#475569" style="white-space: pre;">
			Legend</text>
		<line x1="0" y1="18" x2="30" y2="18" stroke="#3b82f6" stroke-width="2.5"
			stroke-dasharray="6 3" />
		<text x="38" y="22" font-size="11" fill="#475569" style="white-space: pre;">Wi-Fi (802.11)</text>
		<line x1="145" y1="18" x2="175" y2="18" stroke="#f59e0b" stroke-width="2.5" />
		<text x="183" y="22" font-size="11" fill="#475569" style="white-space: pre;">USB-Ethernet
			(wired)</text>
		<line x1="340" y1="18" x2="370" y2="18" stroke="#7c3aed" stroke-width="2"
			stroke-dasharray="5 3" />
		<text x="378" y="22" font-size="11" fill="#475569" style="white-space: pre;">WireGuard VPN
			tunnel</text>
	</g>
	<rect width="900" height="560" rx="16" fill="none" stroke="#cbd5e120" stroke-width="1" />
	<path style="fill: none; stroke-width: 2px; stroke: rgb(245, 158, 11);"
		d="M 357 290.101 L 541.79 290.073" />
</svg>
